<svg id="Layer_1" data-name="Layer 1" xmlns="http://www.w3.org/2000/svg" viewBox="0 0 305.61 305.61"><defs><style>.cls-1{fill:#fff;}</style></defs><path class="cls-1" d="M1181.81,1722h251.4c1.8.39,3.62.7,5.41,1.18,13.21,3.55,21.12,13.87,21.13,28.08q.07,123.3,0,246.6c0,6.44-1.56,12.53-5.59,17.82-6.19,8.12-14.66,11.08-24.47,11.09q-119.43,0-238.86,0c-3.66,0-7.32-.24-11-.5-11.86-.82-21.35-9.91-23.93-21.48-.34-1.51-.6-3-.9-4.56v-251.4a12.14,12.14,0,0,0,.75-2.48c1-11.31,10.77-21.83,21.81-23.49C1179,1722.63,1180.39,1722.28,1181.81,1722Zm140.81,130.82c0-4.07,0-7.22,0-10.38,0-5.49-3.2-8.66-8.67-8.67q-16.68,0-33.36,0c-5.81,0-9,3.16-9,9q0,70.89,0,141.77c0,6.07,3.29,9.29,9.43,9.31q16.1,0,32.17,0c6.36,0,9.45-3.13,9.45-9.5q0-36.19,0-72.38a50.48,50.48,0,0,1,5-22.11c4.89-10.25,13.85-15.39,25.33-14.49,10.74.84,18.28,7.08,21,18.32a75.16,75.16,0,0,1,2.24,17c.23,24.61.09,49.24.09,73.86,0,6.31,3,9.28,9.27,9.29q16.68,0,33.36,0c6.25,0,9.54-3.21,9.54-9.54,0-25.52.08-51-.16-76.54-.11-11.79-.81-23.57-3.88-35.06-5.16-19.28-15.65-33.7-35.89-39.06a78.27,78.27,0,0,0-36.52-.53C1340,1835.64,1330.26,1841.88,1322.62,1852.82Zm-123.77,61v70c0,6.81,3.19,10,10,10q14.88,0,29.77,0c8.28,0,11.26-3,11.26-11.29q0-44.22,0-88.42,0-25.16,0-50.31c0-6.8-3.29-10-10-10.06H1208.6c-6.67,0-9.75,3.11-9.75,9.84Zm58.24-125.78a32.87,32.87,0,1,0-32.95,33A33,33,0,0,0,1257.09,1788.07Z" transform="translate(-1155 -1722)"/><path class="cls-1" d="M1155,2000.21c.3,1.52.56,3,.9,4.56,2.58,11.57,12.07,20.66,23.93,21.48,3.66.26,7.32.5,11,.5q119.43,0,238.86,0c9.81,0,18.28-3,24.47-11.09,4-5.29,5.59-11.38,5.59-17.82q.09-123.3,0-246.6c0-14.21-7.92-24.53-21.13-28.08-1.79-.48-3.61-.79-5.41-1.18h27.4v305.61H1155Z" transform="translate(-1155 -1722)"/><path class="cls-1" d="M1181.81,1722c-1.42.28-2.82.63-4.25.84-11,1.66-20.78,12.18-21.81,23.49a12.14,12.14,0,0,1-.75,2.48V1722Z" transform="translate(-1155 -1722)"/><path class="cls-1" d="M1322.62,1852.82c7.64-10.94,17.37-17.18,29.42-19.71a78.27,78.27,0,0,1,36.52.53c20.24,5.36,30.73,19.78,35.89,39.06,3.07,11.49,3.77,23.27,3.88,35.06.24,25.51.17,51,.16,76.54,0,6.33-3.29,9.53-9.54,9.54q-16.68,0-33.36,0c-6.3,0-9.26-3-9.27-9.29,0-24.62.14-49.25-.09-73.86a75.16,75.16,0,0,0-2.24-17c-2.76-11.24-10.3-17.48-21-18.32-11.48-.9-20.44,4.24-25.33,14.49a50.48,50.48,0,0,0-5,22.11q0,36.19,0,72.38c0,6.37-3.09,9.49-9.45,9.5q-16.08,0-32.17,0c-6.14,0-9.42-3.24-9.43-9.31q0-70.89,0-141.77c0-5.83,3.2-9,9-9q16.68,0,33.36,0c5.47,0,8.62,3.18,8.67,8.67C1322.64,1845.6,1322.62,1848.75,1322.62,1852.82Z" transform="translate(-1155 -1722)"/><path class="cls-1" d="M1198.85,1913.85V1843.6c0-6.73,3.08-9.83,9.75-9.84h31.26c6.72,0,10,3.26,10,10.06q0,25.15,0,50.31,0,44.2,0,88.42c0,8.3-3,11.29-11.26,11.29q-14.88,0-29.77,0c-6.8,0-10-3.22-10-10Z" transform="translate(-1155 -1722)"/><path class="cls-1" d="M1257.09,1788.07a32.87,32.87,0,1,1-33-32.89A33,33,0,0,1,1257.09,1788.07Z" transform="translate(-1155 -1722)"/></svg>