<svg xmlns="http://www.w3.org/2000/svg" viewBox="0 0 56.77 56.77"><defs><style>.cls-1{isolation:isolate;}.cls-2{opacity:0.2;mix-blend-mode:multiply;}.cls-3{fill:#fff;}</style></defs><g class="cls-1"><g id="Layer_2" data-name="Layer 2"><g id="white"><g id="white-2" data-name="white"><g id="mail"><g id="drop_shadow" data-name="drop shadow" class="cls-2"><path d="M28.64.51A28.13,28.13,0,1,0,56.77,28.64,28.13,28.13,0,0,0,28.64.51Zm13.17,18L28.35,29.18,14.89,18.51ZM13.12,19.93l9.48,7.52-9.48,9.49Zm1.26,18.85,9.95-10,3.93,3.12.07.09,0,0h0l0,0,4.18-3.31L42.68,38.78Zm29.79-1.61L34.3,27.29l9.87-7.83Z"/></g><g id="color"><path class="cls-3" d="M28.13,0A28.13,28.13,0,1,0,56.26,28.13,28.13,28.13,0,0,0,28.13,0ZM41.3,18,27.84,28.67,14.38,18ZM12.61,19.42l9.48,7.52-9.48,9.49Zm1.26,18.85,10-10,3.93,3.12.07.09,0,0h0l0,0,4.18-3.31,10.1,10.11Zm29.79-1.61-9.87-9.88L43.66,19Z"/></g></g></g></g></g></g></svg>