<svg id="Layer_1" data-name="Layer 1" xmlns="http://www.w3.org/2000/svg" viewBox="0 0 510.98 511.04"><defs><style>.cls-1{fill:#fff;}</style></defs><path class="cls-1" d="M1368,1811.56c-10.24-1-20.49-1.82-30.72-2.9-59.13-6.22-115.39-22.57-168-50.19q-171.93-90.27-236.63-273.74c-17.59-50.15-25.65-102-25.73-155.17,0-17.94,11-28.94,28.94-29q49.15-.12,98.3,0c17.41,0,28.36,10.12,28.66,27.6a359.73,359.73,0,0,0,17,102.9c3.73,11.8.18,22.83-8.71,31.49q-28.61,27.83-57.74,55.12c-3.63,3.4-3.69,5.87-1.49,10,34.1,64.27,82.5,115.5,142.45,156.09,12.37,8.37,25.53,15.56,38.2,23.5,3,1.91,4.77,1.31,7.15-1.1q28.42-28.73,57.14-57.17a51.24,51.24,0,0,1,9.29-7.47c5.62-3.43,11.8-4.54,18.13-1.87,18.19,7.67,37.24,12.29,56.68,14.88,14.47,1.93,29.11,2.82,43.71,3.41,20.08.82,26.1,4.62,33.24,22.84V1788.6c-2.86,12.45-10.56,20-23,23Z" transform="translate(-906.91 -1300.52)"/><path class="cls-1" d="M1394.93,1811.56c12.4-2.92,20.1-10.51,23-23v23Z" transform="translate(-906.91 -1300.52)"/></svg>